<svg width="19" height="26" viewBox="0 0 19 26" fill="none" xmlns="http://www.w3.org/2000/svg">
<path d="M5.71933 14.0935H9.20611L14.6968 0.22876H10.8226L7.65645 10.0058L7.45603 10.9798L7.25565 10.0058L4.07611 0.22876H0.201904L5.71933 14.0935Z" fill="white"/>
<path d="M5.73602 26H9.56683V15.8724C9.69497 15.6793 9.83686 15.5036 9.99246 15.3456C10.1481 15.1874 10.322 15.0514 10.5142 14.9374C10.7522 14.7792 11.0223 14.6606 11.3243 14.5817C11.6356 14.5027 11.9742 14.4631 12.3404 14.4631C12.7798 14.4631 13.1734 14.5071 13.5212 14.5948C13.869 14.674 14.1665 14.8188 14.4137 15.0295C14.6608 15.2402 14.8485 15.5301 14.9766 15.8987C15.1139 16.2588 15.1826 16.7197 15.1826 17.2815V26H18.9996V17.2288C18.9996 16.1929 18.8715 15.3148 18.6152 14.5948C18.3681 13.8661 18.0202 13.269 17.5717 12.8037C17.114 12.3471 16.5739 12.0135 15.9515 11.8028C15.3291 11.5922 14.6425 11.4867 13.8919 11.4867C13.3061 11.4867 12.7523 11.5659 12.2305 11.7239C11.7088 11.8818 11.2282 12.1102 10.7888 12.4086C10.5325 12.5843 10.29 12.7818 10.0611 13.0013C9.83227 13.2209 9.62175 13.4622 9.42952 13.7256L9.1961 11.7501H5.73602V26Z" fill="white"/>
</svg>
