<svg width="75" height="107" viewBox="0 0 75 107" fill="none" xmlns="http://www.w3.org/2000/svg">
<path d="M22.5762 58H36.3398L58.0137 0.941406H42.7207L30.2227 41.1777L29.4316 45.186L28.6406 41.1777L16.0898 0.941406H0.796879L22.5762 58Z" fill="#1C658C"/>
<path d="M22.6421 107H37.7637V65.321C38.2695 64.526 38.8296 63.803 39.4438 63.153C40.0581 62.502 40.7446 61.942 41.5034 61.473C42.4429 60.822 43.5088 60.334 44.7012 60.009C45.9297 59.684 47.2666 59.521 48.7119 59.521C50.4463 59.521 52 59.702 53.373 60.063C54.7461 60.389 55.9204 60.985 56.896 61.852C57.8716 62.719 58.6123 63.912 59.1182 65.429C59.6602 66.911 59.9312 68.808 59.9312 71.12V107H74.9985V70.903C74.9985 66.64 74.4927 63.026 73.481 60.063C72.5054 57.064 71.1323 54.607 69.3618 52.692C67.5552 50.813 65.4233 49.44 62.9663 48.573C60.5093 47.706 57.7993 47.272 54.8364 47.272C52.5239 47.272 50.3379 47.598 48.2783 48.248C46.2188 48.898 44.3218 49.838 42.5874 51.066C41.5757 51.789 40.6182 52.602 39.7148 53.505C38.8115 54.409 37.9805 55.402 37.2217 56.486L36.3003 48.356H22.6421V107Z" fill="#1C658C"/>
</svg>
